<?xml version="1.0" standalone="no"?><!DOCTYPE svg PUBLIC "-//W3C//DTD SVG 1.1//EN" "http://www.w3.org/Graphics/SVG/1.1/DTD/svg11.dtd"><svg class="icon" height="512" viewBox="0 0 1024 1024" version="1.1" xmlns="http://www.w3.org/2000/svg"><path d="M753.777778 116.622222c0-8.533333-2.844444-14.222222-8.533334-19.911111-65.422222-62.577778-150.755556-96.711111-238.933333-96.711111-105.244444 0-201.955556 48.355556-264.533333 122.311111-68.266667-42.666667-125.155556-56.888889-170.666667-34.133333-68.266667 34.133333-71.111111 130.844444-71.111111 142.222222v765.155556c0 17.066667 14.222222 28.444444 28.444444 28.444444 17.066667 0 28.444444-14.222222 28.444445-28.444444v-765.155556c0-17.066667 8.533333-73.955556 36.977778-88.177778 22.755556-11.377778 62.577778 0 108.088889 31.288889-28.444444 48.355556-45.511111 105.244444-45.511112 167.822222 0 88.177778 34.133333 170.666667 96.711112 233.244445 5.688889 5.688889 14.222222 8.533333 19.911111 8.533333 8.533333 0 14.222222-2.844444 19.911111-8.533333l443.733333-435.2c14.222222-8.533333 17.066667-17.066667 17.066667-22.755556z m-469.333334 389.688889c-39.822222-48.355556-59.733333-108.088889-59.733333-170.666667 0-153.6 128-278.755556 284.444445-278.755555 62.577778 0 125.155556 19.911111 173.511111 59.733333l-398.222223 389.688889z m139.377778 31.288889c-11.377778-11.377778-31.288889-11.377778-42.666666 0-11.377778 11.377778-11.377778 31.288889 0 42.666667l82.488888 79.644444c5.688889 5.688889 14.222222 8.533333 19.911112 8.533333 8.533333 0 14.222222-2.844444 19.911111-8.533333 11.377778-11.377778 11.377778-31.288889 0-42.666667l-79.644445-79.644444z m156.444445 150.755556c-11.377778-11.377778-31.288889-11.377778-42.666667 0-11.377778 11.377778-11.377778 31.288889 0 42.666666l82.488889 79.644445c5.688889 5.688889 14.222222 8.533333 19.911111 8.533333 8.533333 0 14.222222-2.844444 19.911111-8.533333 11.377778-11.377778 11.377778-31.288889 0-42.666667l-79.644444-79.644444z m34.133333-176.355556c5.688889 5.688889 14.222222 8.533333 19.911111 8.533333 8.533333 0 14.222222-2.844444 19.911111-8.533333 11.377778-11.377778 11.377778-31.288889 0-42.666667l-82.488889-79.644444c-11.377778-11.377778-31.288889-11.377778-42.666666 0-11.377778 11.377778-11.377778 31.288889 0 42.666667l85.333333 79.644444z m113.777778 31.288889c-11.377778-11.377778-31.288889-11.377778-42.666667 0-11.377778 11.377778-11.377778 31.288889 0 42.666667l82.488889 79.644444c5.688889 5.688889 14.222222 8.533333 19.911111 8.533333 8.533333 0 14.222222-2.844444 19.911111-8.533333 11.377778-11.377778 11.377778-31.288889 0-42.666667l-79.644444-79.644444z m-147.911111-8.533333c-11.377778-11.377778-31.288889-11.377778-42.666667 0-11.377778 11.377778-11.377778 31.288889 0 42.666666l82.488889 79.644445c5.688889 5.688889 14.222222 8.533333 19.911111 8.533333 8.533333 0 14.222222-2.844444 19.911111-8.533333 11.377778-11.377778 11.377778-31.288889 0-42.666667l-79.644444-79.644444z m196.266666-341.333334c-11.377778-11.377778-31.288889-11.377778-42.666666 0-11.377778 11.377778-11.377778 31.288889 0 42.666667l82.488889 79.644444c5.688889 5.688889 14.222222 8.533333 19.911111 8.533334 8.533333 0 14.222222-2.844444 19.911111-8.533334 11.377778-11.377778 11.377778-31.288889 0-42.666666l-79.644445-79.644445z m236.088889 230.4l-82.488889-79.644444c-11.377778-11.377778-31.288889-11.377778-42.666666 0-11.377778 11.377778-11.377778 31.288889 0 42.666666l82.488889 79.644445c5.688889 5.688889 14.222222 8.533333 19.911111 8.533333s14.222222-2.844444 19.911111-8.533333c14.222222-11.377778 14.222222-31.288889 2.844444-42.666667z m-275.911111-71.111111c-11.377778-11.377778-31.288889-11.377778-42.666667 0-11.377778 11.377778-11.377778 31.288889 0 42.666667l82.488889 79.644444c5.688889 5.688889 14.222222 8.533333 19.911111 8.533334 8.533333 0 14.222222-2.844444 19.911112-8.533334 11.377778-11.377778 11.377778-31.288889 0-42.666666l-79.644445-79.644445z" fill="" /></svg>